<?xml version="1.0" encoding="utf-8"?>
<!-- Generator: Adobe Illustrator 24.0.2, SVG Export Plug-In . SVG Version: 6.00 Build 0)  -->
<svg version="1.1" id="Warstwa_1" xmlns="http://www.w3.org/2000/svg" xmlns:xlink="http://www.w3.org/1999/xlink" x="0px" y="0px"
	 viewBox="0 0 256 256" style="enable-background:new 0 0 256 256;" xml:space="preserve">
<style type="text/css">
	.st0{fill:url(#SVGID_1_);stroke:#000000;stroke-width:0.5;stroke-miterlimit:10;}
</style>
<g>
	<linearGradient id="SVGID_1_" gradientUnits="userSpaceOnUse" x1="8.421921e-09" y1="127.9987" x2="256" y2="127.9987">
		<stop  offset="0" style="stop-color:#38B2AC"/>
		<stop  offset="1" style="stop-color:#FFFFFF"/>
	</linearGradient>
	<path class="st0" d="M235.8,190c0,0-22.5,17.8-31.9,25.1c-1.2,1-2.8,1.6-4.3,0.4c-1.2-1.1-0.6-3.2-0.1-4.5c0,0,15.8-40.8,20-52.2
		c0.5-1.4,1.2-3,3.7-3.2c2-0.1,3.3,1.7,3.6,2.4l11.4,22.1C240.1,183.9,239.1,187.4,235.8,190L235.8,190z M174.2,230.7
		c-1.3,3.4-6.4,7.7-11.2,6.7c-0.8-0.1-2.7-0.6-3.4-0.9c-1-0.3-129.2-33.5-131-34.1c-4.4-1.3-7.2-3.1-8.4-6.7c-1-3.1,1.1-8,2.6-10.4
		c4.1-6.8,61.8-102.1,62.2-102.9c2.3-3.8,4.9-5.9,9.4-6.3L222,65.5c3.3-0.3,7.6-0.5,9.7,2.6c2.9,4.3,2,7.6,0.9,10.5
		C232.6,78.5,175.8,226.5,174.2,230.7L174.2,230.7z M20.8,49.3c-0.3-1.2-1-4.6,0.6-5.9c2.2-1.7,4.4-0.5,6.1,0.5l37.3,22.9
		c3.9,2.4,5,7.7,2.6,12.4l-21.9,36.1c-0.7,1-2.2,4-4.9,3.7c-2.5-0.3-3.1-2.5-3.3-3.4L20.8,49.3L20.8,49.3z M41.5,24.3l109.6-7.6
		c5.6-0.5,10.3,1.2,15.4,3.6c12.5,6,46.5,22.8,46.5,22.8c1.7,0.8,3.8,2.2,3.2,3.9c-0.9,2.6-3.6,2.5-5.5,2.7L90.2,59.8
		c-3.4,0-6.1-0.8-9-2.5l-41-25.2c-1.7-1.1-3.1-2.7-2.5-5C38.3,24.3,41.5,24.3,41.5,24.3L41.5,24.3z M231,129l22.6-59.1
		c6-15.2-0.1-25.5-11.4-30.9L174.7,5.9c-7.5-3.6-13.3-6.5-24.4-5.7L22.8,8.9c-6.4,0.6-13.9,4.1-18,9.7c-4.1,5.6-5.1,14.9-3.4,21.7
		l26.2,104.9c-2.9,4.4-18.1,29.9-23.4,38.7c-3.7,6.2-5.8,12.8-2.8,19.8c2.9,6.7,10,11.5,17.2,13.4c36,9.6,145,37.8,146.1,38
		c2.1,0.6,3.8,0.9,5.9,0.9c5.5,0,10.5-2.1,14.8-5.4l61.3-48.1c8.9-7,11.8-19.1,6.7-29.1L231,129L231,129z"/>
</g>
</svg>
